<svg width="16" height="16" viewBox="0 0 16 16" fill="none" xmlns="http://www.w3.org/2000/svg">
<path d="M15.2727 13.8182V13.0909H14.5455V12.3636H13.8182V11.6364H13.0909V10.9091H11.6364V10.1818H12.3636V8.72727H13.0909V4.36364H12.3636V2.90909H11.6364V2.18182H10.9091V1.45455H10.1818V0.727273H8.72727V0H4.36364V0.727273H2.90909V1.45455H2.18182V2.18182H1.45455V2.90909H0.727273V4.36364H0V8.72727H0.727273V10.1818H1.45455V10.9091H2.18182V11.6364H2.90909V12.3636H4.36364V13.0909H8.72727V12.3636H10.1818V11.6364H10.9091V13.0909H11.6364V13.8182H12.3636V14.5455H13.0909V15.2727H13.8182V16H15.2727V15.2727H16V13.8182H15.2727ZM8 10.1818V10.9091H5.09091V10.1818H3.63636V9.45455H2.90909V8H2.18182V5.09091H2.90909V3.63636H3.63636V2.90909H5.09091V2.18182H8V2.90909H9.45455V3.63636H10.1818V5.09091H10.9091V8H10.1818V9.45455H9.45455V10.1818H8Z" fill="#333333"/>
</svg>
